<?xml version="1.0" encoding="UTF-8" standalone="no"?>
<!-- Created with Inkscape (http://www.inkscape.org/) -->

<svg
   version="1.1"
   id="svg1"
   width="712.81006"
   height="783.2345"
   viewBox="0 0 712.81006 783.2345"
   xmlns="http://www.w3.org/2000/svg"
   xmlns:svg="http://www.w3.org/2000/svg">
  <defs
     id="defs1" />
  <g
     id="g1"
     transform="translate(2907.8091,-120.38275)">
    <rect
       style="fill:#ffffff;stroke-width:100.029"
       id="rect6"
       width="1944.6154"
       height="1900.3077"
       x="-3099.252"
       y="-847.19159"
       rx="49.368198"
       ry="91.070557" />
    <g
       id="g4"
       transform="translate(-3063.4041,-83.145355)">
      <rect
         style="fill:#000000;stroke-width:119.279"
         id="rect2-0-6-0"
         width="712.81"
         height="783.2345"
         x="155.595"
         y="203.52811"
         rx="49.865582"
         ry="54.449009" />
      <path
         style="fill:#ffffff;stroke-width:0.999788"
         d="m 830.77097,979.98739 c 12.83317,-3.0263 21.68113,-9.494 28.45945,-20.8036 6.91087,-11.5304 6.61881,-4.7525 6.61881,-153.6041 V 671.52709 H 511.99922 158.149 l 0.017,134.25001 c 0.019,146.10589 -0.12166,142.27579 5.60543,152.80279 5.92029,10.8821 17.57364,19.5282 29.4706,21.8657 2.41448,0.4743 145.40521,0.9051 317.75721,0.9572 276.22119,0.084 314.12633,-0.084 319.77133,-1.4154 z m -564.69268,-34.6652 c -1.82753,-0.6763 -1.97417,-1.699 -1.97417,-13.7629 0,-7.1677 0.30206,-13.0322 0.67121,-13.0322 0.36925,0 3.63037,1.2129 7.24694,2.6954 5.52236,2.2636 8.11915,2.7041 16.21123,2.75 12.12117,0.069 13.85453,-1.0603 13.85453,-9.0237 0,-6.7286 -2.48485,-9.8494 -11.71753,-14.7161 -8.77278,-4.6243 -20.94683,-13.777 -23.95986,-18.01347 -1.79953,-2.53029 -2.61899,-5.58724 -3.41866,-12.75252 -2.19007,-19.62356 3.13078,-31.0087 15.91638,-34.0567 2.02833,-0.48355 12.96069,-1.11182 24.29429,-1.39615 17.33746,-0.43496 20.79929,-0.28425 21.82337,0.95011 1.30493,1.5731 1.18149,25.77518 -0.13825,27.09001 -0.37984,0.37829 -3.0786,-0.65148 -5.99745,-2.28838 -9.9073,-5.55595 -25.05159,-6.57114 -28.32291,-1.89862 -0.83014,1.18574 -1.47387,4.32834 -1.47387,7.19555 0,6.40976 1.52315,7.96072 16.49302,16.79372 22.6403,13.35894 23.91526,15.16455 23.33971,33.04985 -0.31488,9.7905 -0.69921,11.8176 -3.21165,16.9438 -3.44834,7.0361 -8.67882,11.1579 -15.95283,12.5712 -6.24986,1.2144 -40.90548,1.9292 -43.6835,0.9011 z m 153.2102,0.4145 -8.24652,-0.2904 -0.01,-45.7096 c 0,-25.14029 -0.29698,-50.11718 -0.65353,-55.50423 l -0.64833,-9.79465 28.46725,0.29465 28.46723,0.29464 4.2614,2.82288 c 3.0563,2.02461 5.01357,4.42828 6.92146,8.5 2.55482,5.4522 2.65999,6.35065 2.65339,22.67712 -0.01,16.95846 -0.014,17.01309 -2.96515,22.35555 -1.62701,2.94556 -4.53408,6.65504 -6.46007,8.24334 l -3.5019,2.8877 3.80688,11.7567 c 2.09371,6.4662 5.34133,15.9298 7.21654,21.0302 1.8755,5.1004 3.40986,9.4879 3.40986,9.75 0,0.2621 -5.38732,0.4766 -11.97183,0.4766 -11.3211,0 -12.0504,-0.1224 -13.41573,-2.2501 -0.79415,-1.2375 -3.06808,-8.775 -5.05334,-16.75 -1.98506,-7.975 -4.34027,-15.9625 -5.23369,-17.75 -1.45869,-2.9182 -2.06763,-3.25 -5.96518,-3.25 h -4.33586 v 19.8993 19.8994 l -4.24821,0.3507 c -2.33651,0.1928 -7.95911,0.22 -12.49469,0.06 z m 33.29618,-60.66125 c 1.26098,-1.9254 1.60574,-5.17022 1.60574,-15.11666 0,-6.96576 -0.37485,-13.02982 -0.83307,-13.47569 -0.45809,-0.44587 -4.54496,-0.95587 -9.08184,-1.13333 l -8.24881,-0.32266 v 15.58333 c 0,8.57084 0.30217,15.88334 0.66872,16.25 0.36655,0.36667 3.72972,0.66667 7.47373,0.66667 6.12241,0 6.96906,-0.24669 8.41313,-2.45166 z m -257.51121,59.70175 c -0.033,-0.4126 -0.01,-23.3328 0.056,-50.93383 0.08,-34.48856 -0.23679,-51.49526 -1.01246,-54.3772 -0.62083,-2.30641 -0.75859,-4.47373 -0.30628,-4.81626 0.45232,-0.34254 13.41711,-0.3978 28.8106,-0.1228 l 27.98814,0.5 0.91403,4.733 c 0.55236,2.86004 0.55236,6.98071 0,10.413 l -0.91403,5.68 -14.17358,-0.2289 c -16.90634,-0.27303 -16.3131,-0.73984 -16.3131,12.83716 v 9.06574 l 9.99577,0.125 c 5.49766,0.0688 10.46196,0.18125 11.03172,0.25 2.17507,0.26242 2.93227,3.4336 2.94705,12.34326 l 0.015,9.21823 -11.74502,0.2818 -11.74503,0.2817 -0.18251,11 c -0.15124,9.1163 0.095,11.2141 1.44048,12.25 1.10984,0.8548 5.79236,1.25 14.80973,1.25 15.38209,0 14.38311,-0.8841 14.40571,12.75 l 0.014,8.2501 h -27.98814 c -15.39349,0 -28.01503,-0.3375 -28.04802,-0.75 z m 159.92895,0 c -0.035,-0.4126 -0.14724,-20.1001 -0.24989,-43.7501 l -0.18663,-42.99999 -9.68799,-0.28551 -9.6879,-0.28552 0.19194,-11.46282 0.19201,-11.46283 30.73696,-0.002 30.73699,-10e-4 v 11.46107 11.46106 l -8.74629,0.28894 -8.7463,0.28893 -0.27588,16.49562 c -0.15164,9.07259 0.12414,28.19755 0.61285,42.49995 0.48879,14.3025 0.6773,26.5669 0.41872,27.2544 -0.34107,0.9075 -3.86437,1.2501 -12.85757,1.2501 -6.8133,0 -12.41623,-0.3375 -12.45102,-0.75 z m 136.59784,-0.1004 c -0.28888,-0.4678 1.25136,-9.7414 3.42276,-20.608 2.17147,-10.8667 6.00665,-31.72175 8.52258,-46.34464 4.10206,-23.84113 6.51274,-36.22206 8.07458,-41.46838 0.48449,-1.62755 2.07923,-1.74931 19.64569,-1.5 l 19.11828,0.27133 1.20029,8 c 0.66003,4.4 2.36101,12.79923 3.77961,18.66496 1.4187,5.86573 4.39534,19.74352 6.61491,30.83953 2.21945,11.096 5.60121,26.2334 7.5149,33.6387 1.91379,7.4053 3.47953,14.8035 3.47953,16.4404 v 2.9762 l -12.7446,-0.2799 -12.74461,-0.2798 -1.21378,-7.0001 c -0.66751,-3.85 -1.48228,-9.1375 -1.81043,-11.75 l -0.59684,-4.75 h -11.88836 -11.88838 l -0.56754,3.75 c -1.87552,12.3913 -2.77193,17.8954 -3.09401,19 -0.42452,1.4556 -23.93834,1.8341 -24.82458,0.3997 z m 47.64252,-43.8997 c -0.2569,-1.5125 -1.54224,-8.37499 -2.85619,-15.24999 -1.31394,-6.875 -2.39069,-13.94035 -2.39289,-15.70078 -0.01,-4.83915 -2.0998,-13.60728 -3.01991,-12.64567 -0.44562,0.46555 -1.97766,9.39645 -3.40486,19.84645 -1.4271,10.45 -2.8548,20.68749 -3.17265,22.74999 l -0.57786,3.75 h 7.94582 7.94584 z m 44.88948,13 c 0.50498,-34.73966 -0.30736,-74.73883 -1.57392,-77.49999 -0.7403,-1.6138 0.12624,-1.75 11.13417,-1.75 h 11.93665 l 4.61035,10.25 c 2.53553,5.6375 8.65752,18.73364 13.60413,29.10254 l 8.99409,18.85254 -0.48789,-29.10254 -0.48789,-29.10254 h 12.0381 12.038 l 0.13024,28.75 c 0.072,15.8125 0.18422,40.67499 0.24989,55.24999 l 0.11966,26.5001 h -10.98225 -10.98235 l -4.81046,-11.0001 c -2.64569,-6.05 -8.49911,-18.8075 -13.00749,-28.35 l -8.19712,-17.35005 -0.26531,28.60005 -0.26518,28.6001 h -12.12835 -12.12847 z m 90.30414,30.76 c -0.33645,-0.5446 -0.29185,-25.5329 0.099,-55.52959 l 0.7107,-54.53942 11.98733,0.27951 11.98731,0.27951 -0.21751,21.31669 c -0.15604,15.2891 0.11866,21.72198 0.9715,22.75 1.4114,1.7013 17.42951,2.06392 18.44658,0.41759 0.34505,-0.55864 0.58306,-10.92219 0.52867,-23.0301 l -0.099,-22.01438 12.77468,0.2801 12.7747,0.2801 0.25828,55.27994 0.25849,55.27995 -12.75318,-0.2799 -12.75301,-0.2799 -0.26878,-22.1103 -0.2685,-22.1102 -8.65542,-0.5402 c -4.76039,-0.2971 -9.31657,-0.2864 -10.12481,0.024 -1.25187,0.4806 -1.39281,3.6875 -0.95021,21.6504 0.28568,11.5974 0.31468,21.6487 0.065,22.3362 -0.56376,1.5492 -23.8246,1.7932 -24.77181,0.26 z m 105.94903,0.097 c -7.65816,-1.9718 -13.34424,-7.0338 -17.4637,-15.5469 -2.26314,-4.6771 -2.29124,-5.1867 -2.18787,-39.64947 0.10056,-33.541 0.19031,-35.11055 2.28544,-39.98272 2.72473,-6.33659 8.85265,-11.22425 17.37313,-13.85712 5.25158,-1.62269 8.31998,-1.84313 20.08838,-1.44311 7.63967,0.25968 15.30473,0.68624 17.0335,0.94792 3.81908,0.57805 9.80504,5.1796 13.28127,10.20963 l 2.56742,3.71504 0.31565,36.6489 c 0.20741,24.10323 -0.054,38.02283 -0.76487,40.66253 -1.73665,6.4527 -7.1041,13.3413 -12.60326,16.1752 -4.55248,2.3462 -5.94308,2.526 -20.90176,2.7028 -8.81345,0.1041 -17.37403,-0.1581 -19.02333,-0.5827 z m 27.28845,-22.3067 c 0.88312,-0.8835 1.19949,-9.6667 1.19949,-33.30003 0,-23.63333 -0.31637,-32.41651 -1.19949,-33.3 -1.33235,-1.33287 -17.49489,-1.67666 -19.47925,-0.41434 -2.80791,1.78623 -3.3111,7.003 -3.3111,34.3291 0,35.53397 -0.59945,33.88527 12.32049,33.88527 5.87751,0 9.70937,-0.4392 10.46986,-1.2 z M 793.14592,810.3058 c -8.63774,-0.86194 -14.14641,-3.45224 -17.95039,-8.44071 l -2.80673,-3.68073 -0.49979,-21.5785 c -0.27488,-11.86818 -0.27488,-31.0285 0,-42.5785 l 0.49979,-21.00001 h 10.99535 10.99534 l 0.49978,37.20111 c 0.33028,24.58664 0.86464,37.56579 1.57594,38.27658 0.59186,0.59151 3.29072,1.33721 5.99746,1.65711 4.16595,0.49236 5.2113,0.26054 6.81092,-1.51045 1.77645,-1.96681 1.89609,-4.29351 1.99915,-38.85821 l 0.10955,-36.76614 11.27713,-0.28305 11.27713,-0.28305 -0.28178,41.36305 -0.28178,41.36304 -3.03203,4.90469 c -5.69738,9.21604 -16.7526,12.25266 -37.18504,10.21377 z M 197.3324,809.32736 c -1.46568,-1.4663 -1.67069,-21.39062 -0.22929,-22.28185 0.53367,-0.32994 2.34529,0.11148 4.02589,0.98092 1.71586,0.88771 8.15853,2.06639 14.69447,2.68833 11.51202,1.09546 11.65886,1.08291 13.4668,-1.15072 1.12262,-1.38698 1.82783,-3.87949 1.82783,-6.46037 0,-5.17212 -2.30214,-7.54213 -12.99449,-13.37787 -10.6361,-5.80502 -19.65359,-12.64384 -21.57618,-16.36339 -1.33963,-2.59164 -1.56672,-5.35331 -1.21367,-14.76157 0.57284,-15.26895 2.59229,-19.40328 11.7945,-24.14662 5.24748,-2.70487 18.35393,-3.57715 33.48582,-2.22861 l 8.99619,0.80174 -0.045,10.74508 c -0.025,5.9559 -0.50278,11.20295 -1.07194,11.77236 -0.70271,0.70303 -2.43326,0.40485 -5.48297,-0.94473 -4.9768,-2.20241 -16.3105,-3.68604 -20.37047,-2.6666 -4.90453,1.23148 -6.54174,9.42262 -2.75863,13.80224 0.81154,0.93959 6.45215,4.76459 12.53469,8.5 19.61678,12.04716 22.3975,16.19501 21.18422,31.59945 -0.99158,12.58929 -4.59106,18.90794 -12.98609,22.79635 -3.44326,1.59484 -6.64169,1.85498 -23.04016,1.8739 -13.50357,0.0156 -19.39088,-0.32706 -20.24142,-1.17804 z m 84.26432,-0.62005 c -5.6731,-2.65428 -10.23108,-6.77293 -12.7885,-11.55574 -2.13998,-4.00221 -2.20517,-5.056 -2.20517,-35.62421 0,-33.83143 0.29708,-36.22867 5.21401,-42.07457 1.3988,-1.66306 4.75519,-4.14509 7.45863,-5.51562 4.75928,-2.41277 5.40721,-2.47676 20.41206,-2.016 14.21557,0.43653 15.84358,0.68006 19.69396,2.94587 5.38122,3.16671 8.17683,6.19819 10.30463,11.17397 1.44379,3.37607 1.74495,8.19641 1.96756,31.48635 0.30328,31.72792 -0.60493,38.68314 -5.82862,44.63516 -5.83124,6.64421 -9.4603,7.78926 -25.73631,8.12051 -12.472,0.25383 -15.05182,0.034 -18.49225,-1.57572 z m 25.38104,-20.07171 c 1.58374,-1.58434 2.00936,-4.10268 2.61939,-15.49704 0.40062,-7.48291 0.40122,-19.2797 0,-26.2151 -0.90461,-15.69729 -1.38661,-16.3961 -11.3084,-16.3961 -3.95403,0 -7.29902,0.50196 -7.99672,1.2 -1.71068,1.71133 -1.71068,55.88867 0,57.6 0.6977,0.69804 4.04269,1.2 7.99672,1.2 5.33452,0 7.20394,-0.40701 8.68801,-1.89176 z m 37.70152,15.64176 c 0.38945,-3.4375 0.7492,-25.50675 0.79927,-49.04278 l 0.091,-42.79278 2.16397,-0.54426 c 1.1901,-0.29935 11.76063,-0.38913 23.49005,-0.19952 18.425,0.29785 21.80197,0.59728 24.82458,2.2012 8.86255,4.70281 11.99493,11.19212 11.99493,24.84948 0,8.56236 -1.70488,13.31921 -6.31703,17.62501 l -2.51322,2.34634 4.31067,4.15366 c 5.51856,5.31742 6.28633,8.46915 5.56533,22.84619 -0.54626,10.89536 -0.78936,11.98097 -3.56479,15.92322 -1.63829,2.32688 -4.9611,5.27774 -7.38406,6.55747 -4.2702,2.25534 -5.16921,2.32677 -29.28729,2.32677 h -24.88178 z m 40.51275,-15.66907 c 2.15058,-1.74885 2.34321,-2.61273 2.17358,-9.73927 -0.24271,-10.18756 -1.45558,-11.34166 -11.91946,-11.34166 h -7.38596 v 11.5 11.5 h 7.38596 c 5.79625,0 7.89416,-0.41311 9.74588,-1.91907 z m -1.21909,-39.48401 c 0.73818,-0.88985 1.05726,-4.4563 0.87214,-9.75 l -0.29188,-8.34692 h -7.99661 -7.99661 l -0.28608,9.75 -0.28608,9.75 h 7.41055 c 5.14032,0 7.76721,-0.42985 8.57457,-1.40308 z m 75.0487,59.4544 c -4.78586,-2.54481 -7.61186,-5.78728 -9.65669,-11.07979 -1.50847,-3.90426 -1.77635,-9.57773 -2.11201,-44.72153 l -0.38434,-40.25001 3.32759,-0.0176 c 1.83032,-0.01 6.25156,-0.25549 9.82503,-0.54627 3.66715,-0.29841 7.15038,-0.0891 7.99662,0.48049 1.27766,0.86 1.54804,6.52094 1.82922,38.29628 0.37475,42.34673 0.068,40.79845 8.07158,40.77177 2.52614,-0.008 5.18781,-0.3926 5.91481,-0.85371 2.59249,-1.64445 3.09288,-9.0075 2.48975,-36.63098 -0.33628,-15.4 -0.28199,-31.05234 0.12064,-34.78299 l 0.73209,-6.783 10.66238,0.28299 10.66238,0.28302 0.49979,25.50001 c 0.67252,34.31252 -0.17982,52.37133 -2.74254,58.10844 -2.42547,5.42986 -6.51374,9.60905 -11.75132,12.01272 -5.87311,2.69529 -30.37554,2.64706 -35.48498,-0.0698 z m 65.63891,1.28201 c -0.36655,-0.36666 -0.66643,-22.2028 -0.66643,-48.52475 v -47.85809 l 2.38091,-0.90559 c 2.78471,-1.05921 17.18082,0.10838 18.52115,1.50214 1.07425,1.11715 11.69935,21.29167 16.7401,31.78576 1.01257,2.10804 2.10392,4.00101 2.42518,4.2066 0.32107,0.20559 4.31357,-7.59417 8.87194,-17.3328 4.55836,-9.73863 8.9897,-18.50939 9.84734,-19.49058 1.32933,-1.52094 2.96884,-1.7421 11.11947,-1.5 l 9.56025,0.28397 v 49.00001 49 l -10.24565,0.28498 -10.24566,0.28499 -0.076,-27.28499 -0.076,-27.28498 -3.87415,8.25274 c -2.1308,4.539 -5.96208,13.2015 -8.5141,19.25 -2.55192,6.04849 -5.00868,10.99726 -5.45919,10.99726 -0.4506,0 -4.7296,-7.5375 -9.50866,-16.75 -4.77919,-9.2125 -9.09126,-17.1775 -9.58265,-17.7 -0.52589,-0.55945 -0.89302,9.61541 -0.89302,24.75 v 25.7 h -9.82923 c -5.40602,0 -10.12901,-0.3 -10.49546,-0.66667 z m 133.6319,-0.77991 c -1.72888,-0.75256 -4.9631,-3.01307 -7.18737,-5.02337 -6.78102,-6.12885 -7.11267,-8.3024 -6.87189,-45.03005 0.20291,-30.94602 0.28288,-32.13687 2.43098,-36.15547 4.64262,-8.6857 8.83615,-10.21275 30.30167,-11.03415 19.46555,-0.74487 18.95537,-1.0727 18.95537,12.17926 0,12.87605 0.29327,12.48466 -7.78061,10.37759 -3.69234,-0.96357 -9.45491,-1.77788 -12.80577,-1.80958 -9.9191,-0.0939 -9.6911,-0.82893 -8.82968,28.47423 0.69772,23.73131 0.81577,24.80675 2.99944,27.33565 2.18947,2.53541 2.63549,2.62647 12.09597,2.46962 5.40242,-0.0896 11.07542,-0.64704 12.60707,-1.23882 2.26144,-0.87386 2.89477,-0.78839 3.37166,0.45507 0.77247,2.01371 -0.064,17.67486 -1.02695,19.23398 -1.11653,1.80733 -34.03289,1.60605 -38.25989,-0.23396 z m 50.60954,-45.80342 c -0.01,-25.9875 -0.28487,-48.2625 -0.61633,-49.50001 l -0.60273,-2.25 H 732.254 c 28.46775,0 26.64053,-0.74434 26.64053,10.85248 0,10.72113 0.82524,10.14753 -14.60082,10.14753 h -13.38734 v 8.88072 8.88072 l 9.45721,0.4138 c 5.20139,0.22759 9.77496,0.73179 10.16349,1.12044 1.04555,1.04605 1.71397,11.1988 0.9401,14.28287 l -0.66992,2.67092 -7.69644,-0.67012 c -10.95435,-0.95378 -11.69465,-0.26236 -11.69465,10.92065 0,11.61771 0.30138,11.84144 15.1348,11.2315 l 11.13668,-0.45793 0.59735,3.61322 c 0.77757,4.70214 0.77547,10.08299 -0.01,13.98821 l -0.62504,3.125 h -24.35968 -24.36469 z m 17.00651,-61.72893 -2.49895,-1.93445 2.3879,-4.54332 2.38799,-4.54331 h 9.85683 c 7.99131,0 9.85691,0.27732 9.85691,1.4652 0,2.01629 -5.68688,8.32275 -9.09504,10.08588 -3.92865,2.03246 -9.9026,1.78693 -12.89564,-0.53 z"
         id="path1-3-2-3-9" />
      <g
         id="g2"
         transform="translate(-9.7901812e-7,65.134514)">
        <path
           style="fill:#ffffff;stroke-width:0.999788"
           d="m 220.4467,575.40214 c -8.10827,-2.0309 -12.93413,-6.1464 -14.25337,-12.1555 -0.54336,-2.4749 0.14744,-4.7247 3.43994,-11.203 5.86543,-11.541 11.64038,-18.7898 30.4731,-38.2505 24.89965,-25.73 51.14793,-47.468 80.88494,-66.9864 8.68901,-5.7031 16.17934,-10.3693 16.64515,-10.3693 0.46589,0 1.30104,1.2375 1.8559,2.75 0.55488,1.5125 2.17329,5.898 3.59629,9.7456 1.4231,3.8476 2.5875,7.0623 2.5875,7.1438 0,0.082 -6.63469,5.4757 -14.74376,11.9872 -17.18042,13.7958 -43.94149,40.0552 -46.74959,45.8734 -1.33164,2.7591 -1.93819,6.1715 -1.95517,11 l -0.025,7 4.46001,2.25 c 7.39177,3.729 20.38496,2.8034 45.51882,-3.2426 46.58645,-11.2065 115.63312,-38.4763 176.42527,-69.6786 77.1588,-39.6027 110.58864,-60.2341 172.52801,-106.47634 35.47237,-26.48271 62.34589,-52.33756 69.26756,-66.64188 2.46695,-5.09819 2.98614,-11.93883 1.08054,-14.23598 -1.96448,-2.36803 -8.20042,-5.32707 -12.7653,-6.05733 -7.97091,-1.27514 -53.43096,8.18709 -67.39765,14.0284 -4.76447,1.99266 -4.46559,2.06325 -6.30173,-1.48877 -0.86502,-1.67367 -3.9966,-5.90127 -6.95884,-9.39465 l -5.38593,-6.3516 6.82152,-3.05145 c 10.20526,-4.56508 35.30235,-13.29781 55.02459,-19.14624 9.62092,-2.85299 21.03679,-6.2841 25.36865,-7.62469 13.94378,-4.31527 48.75366,-9.07525 58.73503,-8.03155 6.97054,0.72888 13.51687,3.63615 17.4549,7.75188 2.71953,2.84233 2.89567,3.52946 2.87187,11.20965 -0.03,9.72144 -2.43006,15.40168 -11.14637,26.38008 -17.77587,22.38917 -40.77403,43.20747 -87.78642,79.46572 -6.04743,4.66408 -17.29976,13.39769 -25.00509,19.40802 -26.87893,20.96593 -85.48199,58.72413 -134.42737,86.61213 -83.79541,47.7447 -194.82867,93.2304 -274.0945,112.2851 -20.2491,4.8676 -56.50545,7.8845 -66.04391,5.4954 z m 167.54732,-4.532 c -0.33065,-0.8619 -0.12184,-2.0467 0.46401,-2.6327 1.55475,-1.5555 4.19821,-0.19 4.19821,2.1686 0,2.4662 -3.75101,2.8396 -4.66222,0.4641 z m 309.18823,-20.2615 c -3.83738,-4.242 0.018,-11.9483 5.33295,-10.6587 2.65066,0.6432 5.94758,4.1042 5.98495,6.2829 0.037,2.1473 -4.71989,6.2046 -7.27421,6.2046 -1.31416,0 -3.13388,-0.823 -4.04369,-1.8288 z m 110.33536,-5.1018 c -0.78317,-1.4641 -0.64293,-2.3205 0.58066,-3.5446 1.83632,-1.8371 3.2851,-1.6233 4.75048,0.7009 0.71639,1.136 0.62824,2.0705 -0.30087,3.1904 -1.77035,2.1341 -3.7771,1.9958 -5.03027,-0.3467 z m -66.1088,-44.0604 c -4.31067,-2.2793 -9.62582,-8.1175 -11.52051,-12.6542 -1.91959,-4.596 -1.68078,-13.0832 0.50329,-17.8936 2.31011,-5.0877 9.78974,-11.7469 14.92207,-13.2852 12.10958,-3.6297 24.20955,1.46 28.62797,12.0418 2.21347,5.3012 2.02995,15.9331 -0.35515,20.572 -4.22531,8.2179 -12.75119,13.1804 -22.58204,13.144 -3.93162,-0.015 -7.23682,-0.6776 -9.59563,-1.9248 z m -535.6336,-11.4611 c -1.60551,-1.9354 -0.36555,-5.5479 1.90429,-5.5479 2.852,0 4.40264,2.4786 3.08799,4.936 -1.29174,2.4147 -3.2933,2.66 -4.99228,0.6119 z m 165.63913,-20.2979 c -5.21069,-12.3103 -10.79342,-31.9673 -13.41931,-47.25 -2.72196,-15.8422 -2.50525,-41.9765 0.47069,-56.75545 3.10389,-15.41393 7.18767,-27.48443 14.27397,-42.18927 8.01329,-16.62866 15.28953,-27.30734 26.73477,-39.23672 11.40007,-11.88234 18.1551,-17.37621 32.7935,-26.67118 27.34602,-17.36396 48.47316,-24.50413 76.33918,-25.79973 18.73036,-0.87085 40.92395,2.66131 58.2751,9.27458 8.37666,3.19273 12.0741,6.21869 15.24285,12.47474 9.51796,18.79072 -7.48572,39.02451 -44.51534,52.97178 -45.49703,17.13649 -60.16792,25.63514 -79.23753,45.90133 -8.85295,9.40844 -28.37628,26.51182 -37.99053,33.28152 -3.16825,2.2309 -5.55703,4.2595 -5.30855,4.5081 0.47252,0.4727 9.33527,-2.582 11.06892,-3.8151 0.54976,-0.391 5.72258,-2.3877 11.49514,-4.4371 14.17508,-5.0326 22.18049,-9.36187 31.23086,-16.8895 17.7439,-14.75859 37.3185,-24.73824 68.72679,-35.03876 23.04953,-7.55924 37.79529,-15.13202 48.74525,-25.03356 5.81544,-5.25858 5.87771,-4.7138 0.64553,5.6418 -7.14068,14.13281 -16.65654,25.35808 -29.92003,35.29476 -8.01431,6.00413 -14.56602,9.46836 -29.46652,15.58056 -9.9114,4.06567 -10.97785,4.79653 -19.16058,13.1319 -10.54173,10.7383 -17.82165,14.5653 -34.81655,18.3025 -17.28818,3.8017 -20.12109,5.0053 -32.28183,13.7162 -6.85839,4.9128 -17.78665,11.3106 -28.19255,16.5049 -18.3962,9.1829 -25.21142,13.115 -25.91632,14.9528 -0.32338,0.843 0.46199,0.7944 2.77323,-0.1717 6.12989,-2.5624 19.28462,-5.4442 28.87867,-6.3265 9.53335,-0.8767 9.78014,-0.9674 24.5238,-9.0158 19.93455,-10.882 20.82228,-11.1531 36.588,-11.177 21.09047,-0.032 36.93215,-3.1704 57.26485,-11.3454 19.78581,-7.9552 32.92525,-15.8695 45.31599,-27.29518 4.67302,-4.30909 8.01711,-7.1608 7.43135,-6.33714 -9.26107,13.02172 -14.72754,19.47992 -25.18413,29.75292 -13.30506,13.0716 -21.85234,20.0059 -29.33566,23.7996 -9.20931,4.6687 -28.75723,10.6399 -47.37155,14.4703 -29.21672,6.0122 -33.68413,7.3776 -46.90332,14.3353 -6.63949,3.4946 -17.69431,8.7498 -24.5664,11.6783 -6.87209,2.9285 -18.62881,8.6178 -26.12614,12.6429 -7.49722,4.025 -13.83922,7.3183 -14.09331,7.3183 -0.2541,0 -2.50965,-4.8375 -5.01229,-10.75 z m 10.59292,-91.3775 c 3.05779,-4.57798 7.44893,-8.92668 15.59309,-15.4423 11.01274,-8.81049 12.98031,-11.23318 8.64684,-10.64653 -4.82716,0.65349 -12.2674,2.57353 -14.6615,3.78357 -3.62974,1.83461 -9.73026,8.26346 -12.0036,12.64968 -2.35331,4.54058 -4.32427,13.28318 -3.48683,15.46648 0.75089,1.9576 0.67002,2.0372 5.912,-5.8109 z m 59.43223,-73.08695 c 8.4621,-7.62667 17.94029,-11.73967 30.71868,-13.33019 7.29072,-0.90746 15.45055,-3.6282 19.74474,-6.5834 1.76545,-1.21501 9.73217,-8.54576 17.7038,-16.29056 14.3926,-13.98312 19.84979,-17.77505 32.51232,-22.59139 4.21403,-1.60282 1.4613,-2.95796 -6.02355,-2.96536 -8.69251,-0.009 -14.33212,3.62107 -29.98729,19.29972 -15.39617,15.41927 -19.32882,17.64053 -37.71173,21.30084 -13.85862,2.75945 -20.73951,5.55139 -26.48928,10.74811 -4.64043,4.19414 -9.74127,14.55919 -8.73139,17.74242 0.62933,1.98349 0.74767,1.94581 2.40218,-0.76476 0.95709,-1.56807 3.59477,-4.52251 5.86152,-6.56543 z m 372.37416,151.64715 c -0.90962,-2.3714 1.22228,-4.0439 3.13277,-2.4577 1.1839,0.983 1.28394,1.616 0.41983,2.6576 -1.49687,1.8044 -2.81223,1.7304 -3.5526,-0.1999 z m -587.15668,-33.0166 c -0.95251,-1.1481 -1.02538,-2.0421 -0.26519,-3.25 1.54355,-2.4521 3.65555,-2.4976 5.14012,-0.1107 2.32841,3.7439 -2.05193,6.7636 -4.87493,3.3607 z m 54.70142,-12.2449 c -2.53502,-2.8024 -2.13309,-7.8113 0.77997,-9.7209 3.62107,-2.3735 7.63697,-1.5119 9.72977,2.0875 1.70228,2.9277 1.69548,3.1542 -0.18631,6.25 -1.57514,2.5912 -2.60179,3.2122 -5.31085,3.2122 -1.98406,0 -4.03529,-0.7484 -5.01258,-1.8288 z m 506.37559,-19.3262 c -1.58421,-1.5848 -1.61071,-6.0788 -0.045,-7.645 1.82562,-1.8265 5.27467,-1.4355 7.32431,0.8302 2.71693,3.0035 1.00456,7.3642 -3.04911,7.7648 -1.64211,0.1623 -3.5457,-0.2652 -4.23023,-0.95 z M 272.98463,347.88851 c -11.79399,-5.87973 -16.40784,-19.30059 -10.91038,-31.73666 2.8476,-6.44162 8.2816,-11.21933 15.06244,-13.24318 6.90687,-2.06149 11.26091,-1.82554 17.17822,0.93088 19.41666,9.04474 16.79777,38.97266 -3.93813,45.0033 -7.61078,2.21344 -11.46176,2.00213 -17.39215,-0.95434 z m 37.67685,-86.98669 c -1.81622,-2.1893 -0.062,-4.96443 3.13718,-4.96443 1.98914,0 2.38998,0.50313 2.38998,3 0,2.28 -0.50079,3.07158 -2.08662,3.29826 -1.14772,0.16404 -2.69596,-0.43618 -3.44054,-1.33383 z m 66.36299,-31.96443 c -0.88772,-2.31426 0.36095,-4.5 2.57071,-4.5 2.54763,0 4.42922,3.2355 2.81861,4.8468 -1.62891,1.62962 -4.70722,1.43153 -5.38932,-0.3468 z m 277.77074,-15.02225 c -2.82671,-1.99984 -3.05971,-7.43388 -0.42113,-9.82276 1.00538,-0.91025 3.40856,-1.65499 5.34023,-1.65499 2.98404,0 3.79371,0.5227 5.38292,3.47498 1.84432,3.42612 1.84162,3.514 -0.19131,6.25 -2.44665,3.29288 -6.85389,4.05691 -10.11071,1.75277 z M 437.34992,203.81663 c -2.15179,-2.15261 0.014,-8.37924 2.91465,-8.37924 4.67902,0 4.92983,8.23747 0.2679,8.79591 -1.35873,0.16275 -2.79082,-0.0247 -3.18255,-0.41667 z m 165.21741,-4.82022 c 0,-0.79254 0.46949,-1.73128 1.04335,-2.08609 1.29056,-0.79798 4.13706,1.42251 3.38466,2.64038 -0.89511,1.44907 -4.42801,1.00684 -4.42801,-0.55429 z m -98.60704,-26.08604 c -0.73258,-1.91012 1.27106,-3.55493 3.35579,-2.75463 1.88699,0.72442 1.18529,3.67833 -0.97249,4.09407 -0.9575,0.18447 -2.02995,-0.41828 -2.3833,-1.33944 z"
           id="path1-6-0-7" />
      </g>
    </g>
  </g>
</svg>
