<?xml version="1.0" encoding="UTF-8" standalone="no"?>
<!-- Created with Inkscape (http://www.inkscape.org/) -->

<svg
   width="406.4003mm"
   height="50.244751mm"
   viewBox="0 0 406.4003 50.244751"
   version="1.1"
   id="svg1"
   xml:space="preserve"
   sodipodi:docname="rodape.svg"
   xmlns:inkscape="http://www.inkscape.org/namespaces/inkscape"
   xmlns:sodipodi="http://sodipodi.sourceforge.net/DTD/sodipodi-0.dtd"
   xmlns="http://www.w3.org/2000/svg"
   xmlns:svg="http://www.w3.org/2000/svg"><sodipodi:namedview
     id="namedview1"
     pagecolor="#ffffff"
     bordercolor="#000000"
     borderopacity="0.25"
     inkscape:showpageshadow="2"
     inkscape:pageopacity="0.0"
     inkscape:pagecheckerboard="0"
     inkscape:deskcolor="#d1d1d1"
     inkscape:document-units="mm"><inkscape:page
       x="0"
       y="0"
       width="406.4003"
       height="50.244751"
       id="page2"
       margin="0"
       bleed="0" /></sodipodi:namedview><defs
     id="defs1" /><g
     id="layer1"
     transform="translate(191.75267,-170.95441)"
     style="fill:#618d83;fill-opacity:1"
     inkscape:export-filename="footer-2.png"
     inkscape:export-xdpi="96"
     inkscape:export-ydpi="96"><path
       style="fill:#618d83;fill-opacity:1"
       d="m -53.563087,221.11216 c -4.383961,-0.20444 -8.783604,-0.16827 -13.173721,-0.1961 l -2.096403,-2.16051 -2.096403,-2.1605 h -24.741589 -40.616587 l -2.29825,2.24896 -2.29825,2.24895 -8.3023,-0.006 -30.5273,-0.006 -2.32944,-2.24314 -2.32945,-2.24314 h -7.37965 v -3.57188 -3.57187 c 11.61799,0.22583 -6.3798,0.0968 5.07118,0.20528 0.12287,0.001 2.07402,2.1457 4.50113,4.51733 l 4.41294,4.31205 17.41519,0.10037 c 6.086,0.0351 16.29489,0.17153 22.68674,0.25853 l -4.25344,0.15817 1.80604,-1.79221 1.80605,-1.79221 v -1.49724 -1.49724 l 41.08854,-0.044 25.213538,-0.044 3.030732,3.06654 c 1.666903,1.6866 3.07042,3.18063 3.118927,3.32006 0.05596,0.16084 28.287996,0.25351 77.235594,0.25351 h 77.147397 l 3.34253,-3.30729 3.34254,-3.3073 h 46.657112 46.6571 l 1.61685,-1.42636 c 0.88926,-0.7845 3.75997,-3.40323 6.37934,-5.8194 l 4.7625,-4.39304 6.68073,-10e-4 6.68073,-0.001 v 3.57187 3.57188 h -5.39598 -5.39598 l -0.78187,0.7276 c -0.43003,0.40018 -2.66179,2.45401 -4.95947,4.56406 l -4.17759,3.83646 -13.21406,0.13229 -13.21406,0.1323 0.62532,0.7276 0.62533,0.7276 h 13.11208 13.11208 l 4.87116,-4.62558 4.87116,-4.62559 4.96094,-0.005 4.96094,-0.005 v 3.57187 3.57188 h -6.34032 -6.34032 l -1.79157,1.65364 c -0.98537,0.90951 -2.0104,1.92154 -2.27785,2.24896 l -0.48627,0.59531 H 182.24177 167.0723 l -2.04176,-2.24895 -2.04176,-2.24896 H 128.70882 94.428868 l -2.31297,2.26336 -2.31297,2.26336 c -16.830126,-0.11313 -143.191405,0.23001 -143.366015,-0.009 z m -110.478473,-5.21036 -1.5256,-1.47631 0.002,-10.08478 0.002,-10.08478 1.78127,-1.79504 1.78128,-1.79503 h 8.86296 8.86297 l 1.52903,1.51307 1.52902,1.51308 v 10.21894 10.21895 l -1.69689,1.62944 -1.69689,1.62944 -8.95259,-0.005 -8.95258,-0.005 z m 19.64879,-1.58652 1.05909,-0.95683 v -9.44231 -9.44231 l -0.85989,-0.82887 -0.8599,-0.82888 -8.02744,-0.008 -8.02743,-0.008 -1.16683,1.18359 c -0.99689,1.0112 -1.16977,1.34715 -1.18694,2.30653 -0.0329,1.83991 -0.0404,15.34289 -0.009,16.22624 0.02,0.56266 0.33007,1.11684 0.99917,1.78594 l 0.97014,0.97014 h 8.02493 8.02493 z m 76.254646,-0.48784 -3.361183,-3.29676 -21.563541,-10e-4 c -11.859952,-7.3e-4 -23.319712,-0.005 -25.466142,-0.0105 l -19.77761,-0.009 v -3.04271 -3.0427 h 32.23446 16.359456 l 0.366083,0.68403 c 0.861049,1.60888 2.789767,1.8587 4.115419,0.53305 1.000008,-1.00001 1.137021,-1.84254 0.49997,-3.07446 -0.769096,-1.48727 -2.692083,-1.79882 -4.050051,-0.65617 l -0.786099,0.66146 h -16.432118 -32.30712 v -2.91041 -2.91042 h 36.12622 20.251227 l 1.006768,1.05833 c 0.848776,0.89225 1.173682,1.05834 2.070388,1.05834 1.547812,0 2.457898,-0.79572 2.457898,-2.14901 0,-0.57875 -0.173826,-1.38841 -0.386279,-1.79925 -0.646127,-1.24948 -2.560005,-1.45975 -3.798802,-0.41737 l -0.786099,0.66146 h -20.533161 -36.40816 v -2.00714 -2.00714 l 17.28545,-1.3663 c 1.07667,-0.0851 1.7248,-1.78301 2.10901,-2.29234 l 0.69856,-0.92604 h 23.146015 23.146011 l 2.643579,-2.57969 2.643578,-2.57968 h 77.731558 77.731557 l 2.53346,2.52396 2.53347,2.52395 39.783002,-0.0151 39.78301,-0.015 1.07993,-0.90294 c 0.59396,-0.49661 2.13514,-1.92328 3.42484,-3.17037 l 2.34492,-2.26743 h 17.1681 17.16811 v 1.06754 1.06754 l -16.56019,-0.0284 -16.56019,-0.0284 -1.7622,1.6617 c -2.94238,2.77456 -5.94852,5.5804 -7.47353,6.97556 -0.79533,0.72761 -2.17828,2.00753 -3.07324,2.84427 l -1.6272,1.52136 h -31.12584 -31.12583 l -0.86722,-0.66146 c -2.17685,-1.66037 -5.198902,0.19224 -4.37684,2.68312 0.37555,1.13793 1.16699,1.68251 2.44521,1.68251 1.29747,0 1.93233,-0.34646 2.44242,-1.33287 l 0.4075,-0.788 31.54368,0.007 31.54368,0.007 0.92851,-0.86445 c 0.51068,-0.47546 2.35615,-2.12666 4.10104,-3.66935 1.74489,-1.54268 4.48222,-4.01178 6.08295,-5.48688 l 2.91041,-2.68199 16.07344,-0.003 16.07344,-0.003 v 4.23333 4.23334 h -10.42335 -10.42334 l -2.47509,2.3377 c -1.3613,1.28574 -3.81364,3.54878 -5.44964,5.02898 l -2.97455,2.69127 -34.82724,-0.006 -34.82725,-0.006 -0.78153,-0.65761 c -1.78272,-1.50007 -4.18051,-0.44718 -4.18051,1.83569 0,1.39786 0.55397,2.17611 1.8187,2.55504 1.26788,0.37986 2.45968,-0.15466 2.98353,-1.33812 l 0.35403,-0.79981 h 35.27194 35.27195 l 3.88794,-3.66377 c 2.13837,-2.01507 4.55949,-4.27726 5.38026,-5.02708 l 1.4923,-1.36331 h 9.95092 9.95093 v 2.51354 2.51354 h -7.12485 c -5.33834,0 -7.21252,0.083 -7.47448,0.33084 -0.1923,0.18196 -2.25463,2.05398 -4.58296,4.16004 -2.32834,2.10606 -4.9462,4.51702 -5.81748,5.3577 l -1.58414,1.5285 H 141.32944 94.595238 l -1.02644,1.0787 c -0.56455,0.59328 -2.12758,2.08157 -3.47341,3.30729 l -2.44696,2.22859 H 11.435741 -64.77694 Z m 159.038262,-2.74237 3.89117,-3.92246 v -8.38993 -8.38993 l -3.59573,-3.56261 -3.59572,-3.56261 H 11.089011 -65.421832 l -3.25475,3.26258 -3.254751,3.26259 0.05296,8.57752 0.05296,8.57752 3.99951,4.02983 3.999509,4.02984 75.417685,0.005 75.417687,0.005 z m -272.411098,1.28434 -4.55293,-4.4902 -5.68854,-0.016 v -3.57188 -3.57187 h 8.00618 l 4.41359,4.36562 4.41358,4.36563 h -1.7279 8.85542 l 0.059,3.70416 0.059,3.70417 h -9.93389 0.64945 z m 3.13487,-8.87095 -4.48304,-4.35984 -8.8933,-0.0292 v -2.50201 -2.50201 h 14.2894 l 3.36294,3.30729 3.36294,3.30729 h -3.77196 6.81138 l -0.0189,3.57187 -0.0189,3.57188 -8.37042,-0.003 2.21291,-0.003 z m 90.60776,1.06146 c -0.183282,-0.22084 -0.25526,-0.67738 -0.164074,-1.0407 0.318118,-1.26748 2.013305,-1.07972 2.013305,0.223 0,1.10013 -1.181318,1.62249 -1.849231,0.8177 z m 197.83933,0.10767 c -0.98459,-0.57347 -0.27971,-1.95392 0.91148,-1.78506 0.70085,0.0994 0.97103,1.07939 0.46549,1.68852 -0.36986,0.44566 -0.73376,0.47117 -1.37697,0.0965 z m -283.45405,-8.99348 -3.49946,-3.43828 -14.87016,0.1498 1.2e-4,-4.16718 1.2e-4,-4.16719 h 10.16081 5.92749 l 3.56237,3.28482 3.56237,3.28481 1.7552,-0.0437 c 0.96536,-0.024 1.75488,0.0159 1.75447,0.0886 -4e-4,0.0728 -0.59178,0.78714 -1.31418,1.5875 -1.31328,1.45503 -1.31345,1.45546 -1.3599,3.43959 -0.0255,1.0914 -0.0594,2.28069 -0.0751,2.64287 l -0.0287,0.65849 -6.32965,0.0591 4.25368,0.059 z m 93.820175,1.61256 c -0.387441,-0.38744 -0.466499,-0.67553 -0.305109,-1.1118 0.353599,-0.95588 0.975508,-1.1991 1.606314,-0.62823 0.686107,0.62092 0.702797,1.63055 0.03288,1.98908 -0.682022,0.36501 -0.728754,0.35628 -1.334087,-0.24905 z m 181.762515,0.31523 c -1.36528,-0.46859 -0.85626,-2.6125 0.53397,-2.24895 0.5582,0.14598 1.18394,1.23786 0.93771,1.63626 -0.27699,0.44819 -1.03342,0.7631 -1.47168,0.61269 z m -272.17578,-12.14794 -3.4195,-3.22753 -0.91016,-0.0502 c -9.23184,-0.0276 -16.934,-0.10601 -17.1159,-0.17422 -0.1819,-0.0682 -0.33073,-0.52798 -0.33073,-1.02174 v -0.89773 h 17.60661 1.7316 l 3.40591,3.17565 3.4059,3.17565 30.31665,0.0122 c 7.94291,0.003 14.44166,0.1021 14.44166,0.21203 0,0.10992 -0.39047,0.57832 -0.86771,1.04088 l -0.86771,0.84102 -14.05107,0.0708 -29.92606,0.0708 z m 86.917848,0.53325 c 0.190996,-0.0764 0.4192,-0.067 0.507118,0.0209 0.08792,0.0879 -0.06835,0.15046 -0.347265,0.13897 -0.308225,-0.0127 -0.370919,-0.0754 -0.159853,-0.15985 z m -84.220178,-4.71231 -3.43958,-3.28763 -2.57969,-0.0107 -18.45469,-0.0107 v -0.92257 -0.92257 l 18.98385,-0.0696 3.10886,-0.0696 3.45529,3.37702 3.4553,3.37702 51.10577,-0.024 35.230775,-0.024 2.852647,-2.88997 2.852648,-2.88996 h 8.478086 8.478086 l 2.744496,-2.77812 2.744495,-2.77813 h 59.524588 59.524597 l 2.5491,2.63426 2.5491,2.63425 13.43311,0.0935 13.433122,0.0935 2.83725,2.82846 2.83725,2.82845 h 31.39376 31.39376 l 3.26234,-3.18372 3.26233,-3.18371 18.45469,0.0739 18.45469,0.0739 v 0.99316 0.99316 l -18.05781,0.005 -18.05782,0.005 -3.30729,3.16201 -3.30729,3.16201 -32.28368,0.008 -32.28368,0.008 -2.90139,-2.91042 -2.90139,-2.91042 -85.464929,0.0255 -85.464922,0.0255 -2.645833,2.85522 -2.645833,2.85521 -36.644793,0.0207 -52.51979,0.0207 z m 238.570748,-6.2856 -1.73908,-1.78594 H 11.174141 -47.204907 l -0.83626,0.91899 c -0.45995,0.50545 -0.83627,1.04123 -0.83627,1.19063 0,0.1494 -0.0893,0.27537 -0.19843,0.27995 -0.10914,0.005 -0.42319,0.31658 -0.69788,0.69336 l -0.499436,0.68505 61.652274,-0.0981 61.652267,-0.0981 z m -153.648688,4.84147 c -0.296094,-0.12002 -0.697625,-0.41013 -0.892292,-0.64469 -0.321883,-0.38784 -3.190809,-0.42647 -31.675548,-0.42647 h -31.32161 l -2.81183,-2.91041 -2.81182,-2.91042 h -19.94146 -19.94146 l 5e-5,-0.99219 4e-5,-0.99218 h 20.49026 20.49026 l 3.01698,2.97656 3.01699,2.97656 h 30.38229 30.382299 l 0.69825,-0.83639 c 0.616013,-0.73789 0.851272,-0.83408 1.997519,-0.81675 1.062822,0.0161 1.408723,0.14689 1.900706,0.71885 1.111661,1.29239 0.574867,3.26092 -1.043003,3.82491 -0.941011,0.32804 -1.197166,0.33235 -1.936621,0.0326 z m 1.861269,-2.26178 c 0,-0.65742 -0.967503,-0.85223 -1.434993,-0.28894 -0.461323,0.55586 -0.102867,0.99607 0.732375,0.89941 0.499126,-0.0578 0.702618,-0.23456 0.702618,-0.61047 z m 192.464011,1.74014 c -0.87375,-0.87375 -0.98269,-1.75856 -0.36385,-2.95527 0.76298,-1.47544 2.54753,-1.70589 3.91466,-0.50554 l 0.90303,0.79287 26.38278,0.0381 26.38278,0.0381 2.82071,-2.81196 2.82071,-2.81197 19.90896,-0.0695 19.90897,-0.0695 -3e-5,0.99218 -3e-5,0.99219 h -19.29929 -19.29928 l -2.96475,2.91042 -2.96475,2.91041 h -26.80443 -26.80442 l -0.97471,0.66146 c -1.34938,0.91571 -2.57796,0.87716 -3.56706,-0.11194 z m 2.93077,-1.74441 c 0,-0.4226 -1.13122,-0.8069 -1.57246,-0.53419 -0.42677,0.26376 -0.33349,0.87889 0.17657,1.16433 0.55132,0.30854 1.39589,-0.0727 1.39589,-0.63014 z"
       id="path13-2"
       sodipodi:nodetypes="cccccccccccccccsccsscccccccssscccccsscccccccsscccccccccccccccsscccccccccscccccccccccccccccccccccccscsscccccccccccccsssscccccccssssscccccsscccccccccccsscccccccssscccsssscccssscccccccsscccsssscccsscccccsssscccsscccccccccccccccccccccccccccccccccccccscccccccccccccssssscssscsccccccccccccccccssssssscsscsccsccccccssccccscssscccccccccccccccccccccccccccccccccccccccccccccccccccccsscscccccsscccccccccccccscssccsscsssscccccccccccccccssssssss" /></g></svg>
